<svg width="35" height="35" viewBox="0 0 35 35" fill="none" xmlns="http://www.w3.org/2000/svg">
<path d="M12.886 13.75C12.7329 15.8152 11.1673 17.5 9.44852 17.5C7.72977 17.5 6.16141 15.8156 6.01102 13.75C5.85477 11.6016 7.37821 10 9.44852 10C11.5188 10 13.0423 11.6406 12.886 13.75Z" stroke="white" stroke-width="1.29483" stroke-linecap="round" stroke-linejoin="round"/>
<path d="M9.49983 20C6.55463 20 3.56543 22.4 3.01227 26.93C2.94558 27.476 3.15479 28 3.54173 28H15.4579C15.8452 28 16.0544 27.476 15.9877 26.93C15.4342 22.4 12.445 20 9.49983 20Z" stroke="white" stroke-width="1.42888" stroke-miterlimit="10"/>
<path d="M17.0111 20.3118V13.8233H18.1122V20.3118H17.0111ZM14.3174 17.6181V16.517H20.8059V17.6181H14.3174Z" fill="white"/>
<path d="M28.886 13.75C28.7329 15.8152 27.1673 17.5 25.4485 17.5C23.7298 17.5 22.1614 15.8156 22.011 13.75C21.8548 11.6016 23.3782 10 25.4485 10C27.5188 10 29.0423 11.6406 28.886 13.75Z" stroke="white" stroke-width="1.29483" stroke-linecap="round" stroke-linejoin="round"/>
<path d="M25.4998 20C22.5546 20 19.5654 22.4 19.0123 26.93C18.9456 27.476 19.1548 28 19.5417 28H31.4579C31.8452 28 32.0544 27.476 31.9877 26.93C31.4342 22.4 28.445 20 25.4998 20Z" stroke="white" stroke-width="1.42888" stroke-miterlimit="10"/>
</svg>
