<svg width="218" height="218" viewBox="0 0 218 218" fill="none" xmlns="http://www.w3.org/2000/svg">
<path d="M109 0C48.898 0 0 48.898 0 109C0 169.102 48.898 218 109 218C169.102 218 218 169.102 218 109C218 48.898 169.102 0 109 0ZM165.727 72.4693L95.2964 156.315C94.5238 157.236 93.5625 157.979 92.4775 158.495C91.3925 159.012 90.2093 159.289 89.0079 159.308H88.8664C87.6912 159.307 86.5292 159.06 85.4558 158.581C84.3824 158.103 83.4216 157.404 82.6356 156.53L52.451 122.992C51.6844 122.179 51.0881 121.221 50.6971 120.174C50.3061 119.127 50.1283 118.013 50.1741 116.896C50.2199 115.78 50.4885 114.683 50.964 113.672C51.4395 112.661 52.1123 111.755 52.9429 111.007C53.7736 110.26 54.7452 109.686 55.8009 109.319C56.8565 108.953 57.9747 108.801 59.0899 108.873C60.205 108.944 61.2946 109.238 62.2945 109.737C63.2945 110.236 64.1846 110.93 64.9126 111.777L88.6463 138.147L152.888 61.6846C154.329 60.0185 156.368 58.9865 158.564 58.8115C160.76 58.6365 162.936 59.3327 164.623 60.7495C166.309 62.1663 167.371 64.1899 167.577 66.383C167.784 68.576 167.119 70.7623 165.727 72.4693Z" fill="url(#paint0_linear_600_204)"/>
<defs>
<linearGradient id="paint0_linear_600_204" x1="44.2812" y1="22.1406" x2="179.396" y2="209.484" gradientUnits="userSpaceOnUse">
<stop offset="0.536" stop-color="white"/>
<stop offset="1" stop-color="#A6A6A6"/>
</linearGradient>
</defs>
</svg>
