<svg width="193" height="135" viewBox="0 0 193 135" fill="none" xmlns="http://www.w3.org/2000/svg">
<path d="M28.8214 57.6429C39.4193 57.6429 48.0357 49.0264 48.0357 38.4286C48.0357 27.8307 39.4193 19.2143 28.8214 19.2143C18.2235 19.2143 9.60714 27.8307 9.60714 38.4286C9.60714 49.0264 18.2235 57.6429 28.8214 57.6429ZM163.321 57.6429C173.919 57.6429 182.536 49.0264 182.536 38.4286C182.536 27.8307 173.919 19.2143 163.321 19.2143C152.724 19.2143 144.107 27.8307 144.107 38.4286C144.107 49.0264 152.724 57.6429 163.321 57.6429ZM172.929 67.25H153.714C148.43 67.25 143.657 69.3816 140.174 72.8342C152.273 79.4691 160.86 91.448 162.721 105.679H182.536C187.85 105.679 192.143 101.385 192.143 96.0714V86.4643C192.143 75.8664 183.526 67.25 172.929 67.25ZM96.0714 67.25C114.655 67.25 129.696 52.2088 129.696 33.625C129.696 15.0412 114.655 0 96.0714 0C77.4876 0 62.4464 15.0412 62.4464 33.625C62.4464 52.2088 77.4876 67.25 96.0714 67.25ZM119.129 76.8571H116.637C110.392 79.8594 103.457 81.6607 96.0714 81.6607C88.6859 81.6607 81.7808 79.8594 75.5061 76.8571H73.0143C53.9201 76.8571 38.4286 92.3487 38.4286 111.443V120.089C38.4286 128.045 44.8834 134.5 52.8393 134.5H139.304C147.259 134.5 153.714 128.045 153.714 120.089V111.443C153.714 92.3487 138.223 76.8571 119.129 76.8571ZM51.9686 72.8342C48.486 69.3816 43.7125 67.25 38.4286 67.25H19.2143C8.61641 67.25 0 75.8664 0 86.4643V96.0714C0 101.385 4.29319 105.679 9.60714 105.679H29.3919C31.2833 91.448 39.8696 79.4691 51.9686 72.8342Z" fill="url(#paint0_linear_643_9)"/>
<defs>
<linearGradient id="paint0_linear_643_9" x1="96.0714" y1="0" x2="96.0714" y2="134.5" gradientUnits="userSpaceOnUse">
<stop stop-color="#237AC2"/>
<stop offset="1" stop-color="#005091"/>
</linearGradient>
</defs>
</svg>
