<svg width="169" height="128" viewBox="0 0 169 128" fill="none" xmlns="http://www.w3.org/2000/svg">
<path d="M165.798 42.3539C167.086 41.3307 169 42.2879 169 43.9053V111.406C169 120.153 161.903 127.25 153.156 127.25H15.8438C7.09668 127.25 0 120.153 0 111.406V43.9383C0 42.2879 1.88145 41.3637 3.20176 42.3869C10.5955 48.1303 20.3988 55.425 54.0668 79.8838C61.0314 84.967 72.7822 95.6615 84.5 95.5955C96.2838 95.6945 108.266 84.7689 114.966 79.8838C148.634 55.425 158.404 48.0973 165.798 42.3539ZM84.5 85C92.1578 85.132 103.182 75.3617 108.728 71.3348C152.529 39.5482 155.863 36.7756 165.963 28.8537C167.878 27.3684 169 25.0578 169 22.6152V16.3438C169 7.59668 161.903 0.5 153.156 0.5H15.8438C7.09668 0.5 0 7.59668 0 16.3438V22.6152C0 25.0578 1.12227 27.3353 3.03672 28.8537C13.1371 36.7426 16.4709 39.5482 60.2723 71.3348C65.8176 75.3617 76.8422 85.132 84.5 85Z" fill="url(#paint0_linear_645_17)"/>
<defs>
<linearGradient id="paint0_linear_645_17" x1="5.3089" y1="6.25131" x2="160.152" y2="119.508" gradientUnits="userSpaceOnUse">
<stop stop-color="#237AC2"/>
<stop offset="1" stop-color="#005091"/>
</linearGradient>
</defs>
</svg>
