<svg width="130" height="148" viewBox="0 0 130 148" fill="none" xmlns="http://www.w3.org/2000/svg">
<path d="M64.7502 148C74.9599 148 83.2415 139.718 83.2415 129.5H46.2589C46.2589 139.718 54.5405 148 64.7502 148ZM127.011 104.724C121.427 98.7235 110.977 89.6961 110.977 60.125C110.977 37.6648 95.2289 19.6852 73.9944 15.2741V9.25C73.9944 4.14227 69.855 0 64.7502 0C59.6454 0 55.506 4.14227 55.506 9.25V15.2741C34.2714 19.6852 18.5233 37.6648 18.5233 60.125C18.5233 89.6961 8.07372 98.7235 2.48903 104.724C0.754653 106.589 -0.0142533 108.818 0.000199854 111C0.0319967 115.741 3.75223 120.25 9.27911 120.25H120.221C125.748 120.25 129.471 115.741 129.5 111C129.515 108.818 128.746 106.586 127.011 104.724Z" fill="url(#paint0_linear_645_15)"/>
<defs>
<linearGradient id="paint0_linear_645_15" x1="43" y1="17.5" x2="102.5" y2="148" gradientUnits="userSpaceOnUse">
<stop stop-color="#237AC2"/>
<stop offset="1" stop-color="#005091"/>
</linearGradient>
</defs>
</svg>
