<svg width="200" height="154" viewBox="0 0 200 154" fill="none" xmlns="http://www.w3.org/2000/svg">
<path d="M194.195 57.8518H170.589V34.2458C170.589 31.3491 168.24 29 165.343 29H160.098C157.201 29 154.852 31.3491 154.852 34.2458V57.8518H131.246C128.349 57.8518 126 60.2009 126 63.0976V68.3433C126 71.24 128.349 73.5891 131.246 73.5891H154.852V97.1951C154.852 100.092 157.201 102.441 160.098 102.441H165.343C168.24 102.441 170.589 100.092 170.589 97.1951V73.5891H194.195C197.092 73.5891 199.441 71.24 199.441 68.3433V63.0976C199.441 60.2009 197.092 57.8518 194.195 57.8518Z" fill="url(#paint0_linear_558_657)"/>
<path d="M76.5868 86.1601C100.371 86.1601 119.667 66.8639 119.667 43.0801C119.667 19.2963 100.371 0 76.5868 0C52.803 0 33.5067 19.2963 33.5067 43.0801C33.5067 66.8639 52.803 86.1601 76.5868 86.1601ZM114.88 95.7335H98.3961C91.7546 98.785 84.3651 100.52 76.5868 100.52C68.8084 100.52 61.4489 98.785 54.7775 95.7335H38.2934C17.1423 95.7335 0 112.876 0 134.027V138.814C0 146.741 6.43209 153.174 14.36 153.174H138.814C146.741 153.174 153.174 146.741 153.174 138.814V134.027C153.174 112.876 136.031 95.7335 114.88 95.7335Z" fill="url(#paint1_linear_558_657)"/>
<defs>
<linearGradient id="paint0_linear_558_657" x1="136.5" y1="43" x2="178" y2="76.5" gradientUnits="userSpaceOnUse">
<stop stop-color="#237AC2"/>
<stop offset="1" stop-color="#005091"/>
</linearGradient>
<linearGradient id="paint1_linear_558_657" x1="50.5" y1="15.5" x2="134.5" y2="147" gradientUnits="userSpaceOnUse">
<stop stop-color="#267EC6"/>
<stop offset="1" stop-color="#005091"/>
</linearGradient>
</defs>
</svg>
