<svg width="35" height="35" viewBox="0 0 35 35" fill="none" xmlns="http://www.w3.org/2000/svg">
<path d="M22.4312 15.3592C22.2677 17.6813 20.5843 19.4701 18.7485 19.4701C16.9127 19.4701 15.2264 17.6819 15.0657 15.3592C14.8983 12.9435 16.5371 11.2484 18.7485 11.2484C20.9598 11.2484 22.5986 12.9875 22.4312 15.3592Z" stroke="#E47F00" stroke-width="1.575" stroke-linecap="round" stroke-linejoin="round"/>
<path d="M18.7485 23.1242C15.1121 23.1242 11.6151 24.9724 10.7391 28.5717C10.623 29.0478 10.9148 29.5189 11.393 29.5189H26.1045C26.5827 29.5189 26.8729 29.0478 26.7585 28.5717C25.8824 24.9147 22.3855 23.1242 18.7485 23.1242Z" stroke="#E47F00" stroke-width="1.575" stroke-miterlimit="10"/>
<path d="M11.1598 16.3835C11.0292 18.238 9.66886 19.6985 8.20245 19.6985C6.73605 19.6985 5.37343 18.2385 5.24509 16.3835C5.11173 14.4543 6.43585 13.0754 8.20245 13.0754C9.96906 13.0754 11.2932 14.4897 11.1598 16.3835Z" stroke="#E47F00" stroke-width="1.575" stroke-linecap="round" stroke-linejoin="round"/>
<path d="M11.4945 23.2384C10.4874 22.7662 9.37806 22.5846 8.20237 22.5846C5.30081 22.5846 2.50527 24.0606 1.80499 26.9353C1.71292 27.3156 1.94616 27.6918 2.32783 27.6918H8.59297" stroke="#E47F00" stroke-width="1.575" stroke-miterlimit="10" stroke-linecap="round"/>
<path d="M24.186 5.08532C24.186 5.08532 24.2303 4.06205 25.2164 3.24158C25.802 2.75444 26.5052 2.61336 27.1353 2.60467C27.7107 2.59754 28.225 2.69584 28.5325 2.84716C29.0581 3.107 30.0845 3.73957 30.0845 5.08532C30.0845 6.50146 29.1881 7.14333 28.169 7.85062C27.15 8.55791 26.8895 9.25156 26.8895 10.0466" stroke="#E47F00" stroke-width="1.55994" stroke-miterlimit="10" stroke-linecap="round"/>
<path d="M26.8896 13.3952C27.4325 13.3952 27.8727 12.9509 27.8727 12.4029C27.8727 11.8549 27.4325 11.4107 26.8896 11.4107C26.3466 11.4107 25.9065 11.8549 25.9065 12.4029C25.9065 12.9509 26.3466 13.3952 26.8896 13.3952Z" fill="#E47F00"/>
</svg>
