<svg width="42" height="33" viewBox="0 0 42 33" fill="none" xmlns="http://www.w3.org/2000/svg">
<path d="M29.625 5.76561C29.625 5.76561 29.6756 4.60545 30.8041 3.67522C31.4742 3.12292 32.2789 2.96295 33 2.95311C33.6585 2.94502 34.247 3.05647 34.5989 3.22803C35.2004 3.52264 36.375 4.23983 36.375 5.76561C36.375 7.3712 35.3491 8.09893 34.183 8.90084C33.0169 9.70276 32.7188 10.4892 32.7188 11.3906" stroke="#005091" stroke-width="1.7" stroke-miterlimit="10" stroke-linecap="round"/>
<path d="M32.7188 15.1871C33.3401 15.1871 33.8438 14.6835 33.8438 14.0621C33.8438 13.4408 33.3401 12.9371 32.7188 12.9371C32.0974 12.9371 31.5938 13.4408 31.5938 14.0621C31.5938 14.6835 32.0974 15.1871 32.7188 15.1871Z" fill="#005091"/>
<path d="M20.6249 21.3438C19.2998 21.3438 18.0184 20.7521 17.0156 19.6783C16.0404 18.6309 15.4448 17.2342 15.3398 15.7466C15.2276 14.1598 15.7117 12.7006 16.7023 11.6371C17.693 10.5736 19.0781 10 20.6249 10C22.1608 10 23.5498 10.5839 24.5372 11.6448C25.5343 12.7161 26.0197 14.1727 25.9075 15.746C25.7999 17.2355 25.205 18.6316 24.2317 19.6776C23.2314 20.7521 21.9507 21.3438 20.6249 21.3438ZM29.1218 32.6875H12.1287C11.8555 32.689 11.5856 32.6277 11.3398 32.5085C11.0939 32.3893 10.8788 32.2152 10.7107 31.9998C10.5325 31.7662 10.4095 31.4954 10.3508 31.2075C10.292 30.9197 10.2992 30.6222 10.3717 30.3375C10.9144 28.1584 12.2589 26.3511 14.2595 25.1117C16.0352 24.0121 18.2956 23.4062 20.6249 23.4062C23 23.4062 25.2011 23.9863 26.9871 25.0853C28.9922 26.3182 30.3387 28.1358 30.8788 30.3414C30.9504 30.6263 30.9568 30.9237 30.8974 31.2114C30.838 31.4991 30.7144 31.7697 30.5359 32.003C30.368 32.2175 30.1533 32.3906 29.9082 32.5093C29.6631 32.6279 29.3941 32.6889 29.1218 32.6875ZM8.44329 21.6016C6.17518 21.6016 4.181 19.4927 3.99602 16.901C3.9045 15.5733 4.31829 14.3454 5.15618 13.445C5.98504 12.5536 7.15422 12.0625 8.44329 12.0625C9.73235 12.0625 10.8925 12.5562 11.7259 13.4528C12.5702 14.3603 12.9827 15.5855 12.886 16.9023C12.7011 19.4933 10.7075 21.6016 8.44329 21.6016ZM12.6753 23.6286C11.5415 23.0743 10.0701 22.7972 8.44393 22.7972C6.54514 22.7972 4.70114 23.2922 3.25094 24.1906C1.60674 25.2109 0.500727 26.6966 0.0540673 28.4903C-0.0112977 28.7483 -0.0174801 29.0178 0.0359827 29.2785C0.0894454 29.5392 0.201169 29.7845 0.362798 29.9959C0.516162 30.1928 0.712639 30.3519 0.937118 30.461C1.1616 30.57 1.4081 30.6261 1.65766 30.625H8.81196C8.93271 30.625 9.04963 30.5826 9.14232 30.5052C9.23502 30.4278 9.29762 30.3204 9.3192 30.2015C9.32629 30.1609 9.33532 30.1203 9.34563 30.0804C9.89219 27.8851 11.1729 26.0301 13.0652 24.6779C13.1348 24.6277 13.1908 24.561 13.2281 24.4837C13.2654 24.4065 13.2828 24.3211 13.2788 24.2354C13.2747 24.1497 13.2494 24.0663 13.205 23.9929C13.1606 23.9195 13.0986 23.8583 13.0246 23.8149C12.9234 23.7556 12.8074 23.6931 12.6753 23.6286Z" fill="url(#paint0_linear_552_510)"/>
<defs>
<linearGradient id="paint0_linear_552_510" x1="15.4688" y1="10" x2="15.4688" y2="32.6875" gradientUnits="userSpaceOnUse">
<stop stop-color="#005091"/>
<stop offset="1" stop-color="#013763"/>
</linearGradient>
</defs>
</svg>
