<svg width="80" height="80" viewBox="0 0 80 80" fill="none" xmlns="http://www.w3.org/2000/svg">
<circle cx="40" cy="40" r="40" fill="url(#paint0_linear_232_121)"/>
<path d="M35.9375 30.3992C35.9375 30.3992 37.0312 30 40.3125 30C43.5938 30 45.3711 31.0938 46.875 32.1875H51.25C52.4103 32.1875 53.5231 32.6484 54.3436 33.4689C55.1641 34.2894 55.625 35.4022 55.625 36.5625V39.8438C55.625 41.0041 55.1641 42.1169 54.3436 42.9373C53.5231 43.7578 52.4103 44.2188 51.25 44.2188H49.1992C48.8236 44.2208 48.4547 44.3186 48.1274 44.5028C47.8 44.687 47.525 44.9515 47.3282 45.2715C47.3282 45.2715 46.7383 46.556 44.9609 49.6342C43.1836 52.7124 39.7656 57.3438 39.2188 58.4375C37.2363 58.4375 36.2793 56.9336 36.8945 55.1761C37.5973 53.167 38.5153 51.4587 38.7717 49.2227C38.8086 48.8959 38.557 48.4023 38.2248 48.4023L29.375 47.7051" fill="url(#paint1_linear_232_121)"/>
<path d="M35.9375 30.3992C35.9375 30.3992 37.0312 30 40.3125 30C43.5938 30 45.3711 31.0938 46.875 32.1875H51.25C52.4103 32.1875 53.5231 32.6484 54.3436 33.4689C55.1641 34.2894 55.625 35.4022 55.625 36.5625V39.8438C55.625 41.0041 55.1641 42.1169 54.3436 42.9373C53.5231 43.7578 52.4103 44.2188 51.25 44.2188H49.1992C48.8236 44.2208 48.4547 44.3186 48.1274 44.5028C47.8 44.687 47.525 44.9515 47.3282 45.2715C47.3282 45.2715 46.7383 46.556 44.9609 49.6342C43.1836 52.7124 39.7656 57.3438 39.2188 58.4375C37.2363 58.4375 36.2793 56.9336 36.8945 55.1761C37.5973 53.167 38.5153 51.4587 38.7717 49.2227C38.8086 48.8959 38.557 48.4023 38.2248 48.4023L29.375 47.7051" stroke="white" stroke-width="2" stroke-linecap="round" stroke-linejoin="round"/>
<path d="M29.375 43.1934L34.8438 43.3301C36.2109 43.4559 37.0312 44.1777 37.0312 45.3809C37.0312 46.584 36.0742 47.3523 34.8438 47.4316L29.375 47.7051C28.1719 47.7051 27.1875 46.584 27.1875 45.3809V45.3692C27.1906 44.7911 27.4224 44.2377 27.8323 43.8299C28.2422 43.4222 28.7968 43.1934 29.375 43.1934ZM27.1875 38.75L34.8438 38.8867C36.0742 38.9441 37.0312 39.7351 37.0312 40.9375C37.0312 42.1413 36.0742 42.9104 34.8438 42.9883L27.1875 43.125C26.6079 43.1232 26.0525 42.8921 25.6427 42.4823C25.2328 42.0725 25.0018 41.5171 25 40.9375C25.0018 40.3579 25.2328 39.8025 25.6427 39.3927C26.0525 38.9829 26.6079 38.7518 27.1875 38.75ZM30.4688 30L34.8438 30.2051C36.2793 30.3309 37.0312 30.9844 37.0312 32.1875C37.0312 33.3906 36.0469 34.2383 34.8438 34.2383L30.4688 34.375C29.8891 34.3734 29.3336 34.1424 28.9237 33.7325C28.5139 33.3226 28.2829 32.7672 28.2812 32.1875C28.2829 31.6078 28.5139 31.0524 28.9237 30.6425C29.3336 30.2326 29.8891 30.0016 30.4688 30ZM28.2812 34.375L34.8438 34.5117C36.1426 34.5691 37.0312 35.3594 37.0312 36.5625C37.0312 37.7656 36.1426 38.534 34.8438 38.6133L28.2812 38.75C27.7016 38.7484 27.1461 38.5174 26.7362 38.1075C26.3264 37.6976 26.0954 37.1422 26.0938 36.5625C26.0954 35.9828 26.3264 35.4274 26.7362 35.0175C27.1461 34.6076 27.7016 34.3766 28.2812 34.375Z" fill="url(#paint2_linear_232_121)" stroke="white" stroke-width="2" stroke-miterlimit="10"/>
<defs>
<linearGradient id="paint0_linear_232_121" x1="40" y1="0" x2="40" y2="80" gradientUnits="userSpaceOnUse">
<stop stop-color="#29A88F"/>
<stop offset="1" stop-color="#29A88F" stop-opacity="0.4"/>
</linearGradient>
<linearGradient id="paint1_linear_232_121" x1="42.5" y1="30" x2="42.5" y2="58.4375" gradientUnits="userSpaceOnUse">
<stop stop-color="#29A88F"/>
<stop offset="1" stop-color="#29A88F" stop-opacity="0.4"/>
</linearGradient>
<linearGradient id="paint2_linear_232_121" x1="31.0156" y1="30" x2="31.0156" y2="47.7051" gradientUnits="userSpaceOnUse">
<stop stop-color="#29A88F"/>
<stop offset="1" stop-color="#29A88F" stop-opacity="0.4"/>
</linearGradient>
</defs>
</svg>
