<svg width="78" height="80" viewBox="0 0 78 80" fill="none" xmlns="http://www.w3.org/2000/svg">
<ellipse cx="39" cy="40" rx="39" ry="40" fill="url(#paint0_linear_683_115)"/>
<g clip-path="url(#clip0_683_115)">
<path d="M34.9375 30.3992C34.9375 30.3992 36.0312 30 39.3125 30C42.5938 30 44.3711 31.0938 45.875 32.1875H50.25C51.4103 32.1875 52.5231 32.6484 53.3436 33.4689C54.1641 34.2894 54.625 35.4022 54.625 36.5625V39.8438C54.625 41.0041 54.1641 42.1169 53.3436 42.9373C52.5231 43.7578 51.4103 44.2188 50.25 44.2188H48.1992C47.8236 44.2208 47.4547 44.3186 47.1274 44.5028C46.8 44.687 46.525 44.9515 46.3282 45.2715C46.3282 45.2715 45.7383 46.556 43.9609 49.6342C42.1836 52.7124 38.7656 57.3438 38.2188 58.4375C36.2363 58.4375 35.2793 56.9336 35.8945 55.1761C36.5973 53.167 37.5153 51.4587 37.7717 49.2227C37.8086 48.8959 37.557 48.4023 37.2248 48.4023L28.375 47.7051" fill="url(#paint1_linear_683_115)"/>
<path d="M34.9375 30.3992C34.9375 30.3992 36.0312 30 39.3125 30C42.5938 30 44.3711 31.0938 45.875 32.1875H50.25C51.4103 32.1875 52.5231 32.6484 53.3436 33.4689C54.1641 34.2894 54.625 35.4022 54.625 36.5625V39.8438C54.625 41.0041 54.1641 42.1169 53.3436 42.9373C52.5231 43.7578 51.4103 44.2188 50.25 44.2188H48.1992C47.8236 44.2208 47.4547 44.3186 47.1274 44.5028C46.8 44.687 46.525 44.9515 46.3282 45.2715C46.3282 45.2715 45.7383 46.556 43.9609 49.6342C42.1836 52.7124 38.7656 57.3438 38.2188 58.4375C36.2363 58.4375 35.2793 56.9336 35.8945 55.1761C36.5973 53.167 37.5153 51.4587 37.7717 49.2227C37.8086 48.8959 37.557 48.4023 37.2248 48.4023L28.375 47.7051" stroke="white" stroke-width="2" stroke-linecap="round" stroke-linejoin="round"/>
<path d="M28.375 43.1934L33.8438 43.3301C35.2109 43.4559 36.0312 44.1777 36.0312 45.3809C36.0312 46.584 35.0742 47.3523 33.8438 47.4316L28.375 47.7051C27.1719 47.7051 26.1875 46.584 26.1875 45.3809V45.3692C26.1906 44.7911 26.4224 44.2377 26.8323 43.8299C27.2422 43.4222 27.7968 43.1934 28.375 43.1934ZM26.1875 38.75L33.8438 38.8867C35.0742 38.9441 36.0312 39.7351 36.0312 40.9375C36.0312 42.1413 35.0742 42.9104 33.8438 42.9883L26.1875 43.125C25.6079 43.1232 25.0525 42.8922 24.6427 42.4823C24.2328 42.0725 24.0018 41.5171 24 40.9375C24.0018 40.3579 24.2328 39.8025 24.6427 39.3927C25.0525 38.9828 25.6079 38.7518 26.1875 38.75ZM29.4688 30L33.8438 30.2051C35.2793 30.3309 36.0312 30.9844 36.0312 32.1875C36.0312 33.3906 35.0469 34.2383 33.8438 34.2383L29.4688 34.375C28.8891 34.3734 28.3336 34.1424 27.9237 33.7325C27.5139 33.3226 27.2829 32.7672 27.2812 32.1875C27.2829 31.6078 27.5139 31.0524 27.9237 30.6425C28.3336 30.2326 28.8891 30.0016 29.4688 30ZM27.2812 34.375L33.8438 34.5117C35.1426 34.5691 36.0312 35.3594 36.0312 36.5625C36.0312 37.7656 35.1426 38.534 33.8438 38.6133L27.2812 38.75C26.7016 38.7484 26.1461 38.5174 25.7362 38.1075C25.3264 37.6976 25.0954 37.1422 25.0938 36.5625C25.0954 35.9828 25.3264 35.4274 25.7362 35.0175C26.1461 34.6076 26.7016 34.3766 27.2812 34.375Z" fill="url(#paint2_linear_683_115)" stroke="white" stroke-width="2" stroke-miterlimit="10"/>
</g>
<defs>
<linearGradient id="paint0_linear_683_115" x1="39" y1="0" x2="39" y2="80" gradientUnits="userSpaceOnUse">
<stop stop-color="#BE1A0D"/>
<stop offset="1" stop-color="#BE1A0D" stop-opacity="0.4"/>
</linearGradient>
<linearGradient id="paint1_linear_683_115" x1="41.5" y1="30" x2="41.5" y2="58.4375" gradientUnits="userSpaceOnUse">
<stop stop-color="#8D0C02"/>
<stop offset="1" stop-color="#8D0C02" stop-opacity="0.4"/>
</linearGradient>
<linearGradient id="paint2_linear_683_115" x1="30.0156" y1="30" x2="30.0156" y2="47.7051" gradientUnits="userSpaceOnUse">
<stop stop-color="#8D0C02"/>
<stop offset="1" stop-color="#8D0C02" stop-opacity="0.4"/>
</linearGradient>
<clipPath id="clip0_683_115">
<rect width="35" height="36" fill="white" transform="translate(22 22)"/>
</clipPath>
</defs>
</svg>
