<svg width="78" height="80" viewBox="0 0 78 80" fill="none" xmlns="http://www.w3.org/2000/svg">
<ellipse cx="39" cy="40" rx="39" ry="40" fill="url(#paint0_linear_520_215)"/>
<path d="M43.875 54.2144C43.875 54.2144 42.7812 54.625 39.5 54.625C36.2188 54.625 34.4414 53.5 32.9375 52.375H28.5625C27.4022 52.375 26.2894 51.9009 25.4689 51.057C24.6484 50.2131 24.1875 49.0685 24.1875 47.875V44.5C24.1875 43.3065 24.6484 42.1619 25.4689 41.318C26.2894 40.4741 27.4022 40 28.5625 40H30.6133C30.9889 39.9979 31.3578 39.8973 31.6851 39.7079C32.0125 39.5184 32.2875 39.2463 32.4843 38.9172C32.4843 38.9172 33.0742 37.596 34.8516 34.4298C36.6289 31.2637 40.0469 26.5 40.5938 25.375C42.5762 25.375 43.5332 26.9219 42.918 28.7296C42.2152 30.7961 41.2972 32.5532 41.0408 34.8531C41.0039 35.1892 41.2555 35.6969 41.5843 35.6969L50.4375 36.4141" stroke="white" stroke-width="2" stroke-linecap="round" stroke-linejoin="round"/>
<path d="M50.4375 41.0547L44.9688 40.9141C43.6016 40.7847 42.7812 40.0422 42.7812 38.8047C42.7812 37.5672 43.7383 36.7769 44.9688 36.6953L50.4375 36.4141C51.6406 36.4141 52.625 37.5672 52.625 38.8047V38.8166C52.6219 39.4113 52.3901 39.9805 51.9802 40.3999C51.5703 40.8193 51.0157 41.0547 50.4375 41.0547ZM52.625 45.625L44.9688 45.4844C43.7383 45.4253 42.7812 44.6118 42.7812 43.375C42.7812 42.1368 43.7383 41.3458 44.9688 41.2656L52.625 41.125C53.2046 41.1269 53.76 41.3645 54.1698 41.7861C54.5797 42.2076 54.8107 42.7788 54.8125 43.375C54.8107 43.9712 54.5797 44.5424 54.1698 44.9639C53.76 45.3855 53.2046 45.6231 52.625 45.625ZM49.3438 54.625L44.9688 54.4141C43.5332 54.2847 42.7812 53.6125 42.7812 52.375C42.7812 51.1375 43.7656 50.2656 44.9688 50.2656L49.3438 50.125C49.9234 50.1267 50.4789 50.3643 50.8888 50.7859C51.2986 51.2074 51.5296 51.7788 51.5312 52.375C51.5296 52.9712 51.2986 53.5426 50.8888 53.9641C50.4789 54.3857 49.9234 54.6233 49.3438 54.625ZM51.5312 50.125L44.9688 49.9844C43.6699 49.9253 42.7812 49.1125 42.7812 47.875C42.7812 46.6375 43.6699 45.8472 44.9688 45.7656L51.5312 45.625C52.1109 45.6267 52.6664 45.8643 53.0763 46.2859C53.4861 46.7074 53.7171 47.2788 53.7188 47.875C53.7171 48.4712 53.4861 49.0426 53.0763 49.4641C52.6664 49.8857 52.1109 50.1233 51.5312 50.125Z" stroke="white" stroke-width="2" stroke-miterlimit="10"/>
<defs>
<linearGradient id="paint0_linear_520_215" x1="39" y1="0" x2="39" y2="80" gradientUnits="userSpaceOnUse">
<stop stop-color="#BE1A0D"/>
<stop offset="1" stop-color="#BE1A0D" stop-opacity="0.4"/>
</linearGradient>
</defs>
</svg>
