<svg width="80" height="80" viewBox="0 0 80 80" fill="none" xmlns="http://www.w3.org/2000/svg">
<circle cx="40" cy="40" r="40" fill="url(#paint0_linear_520_29)"/>
<path d="M45 54.2144C45 54.2144 43.8782 54.625 40.5128 54.625C37.1474 54.625 35.3245 53.5 33.782 52.375H29.2949C28.1048 52.375 26.9635 51.9009 26.1219 51.057C25.2804 50.2131 24.8077 49.0685 24.8077 47.875V44.5C24.8077 43.3065 25.2804 42.1619 26.1219 41.318C26.9635 40.4741 28.1048 40 29.2949 40H31.3982C31.7835 39.9979 32.1618 39.8973 32.4976 39.7079C32.8333 39.5184 33.1154 39.2463 33.3172 38.9172C33.3172 38.9172 33.9223 37.596 35.7452 34.4298C37.5681 31.2637 41.0737 26.5 41.6346 25.375C43.6679 25.375 44.6494 26.9219 44.0184 28.7296C43.2977 30.7961 42.3561 32.5532 42.0931 34.8531C42.0553 35.1892 42.3133 35.6969 42.6505 35.6969L51.7308 36.4141" stroke="white" stroke-width="2" stroke-linecap="round" stroke-linejoin="round"/>
<path d="M51.7307 41.0547L46.1218 40.9141C44.7195 40.7847 43.8782 40.0422 43.8782 38.8047C43.8782 37.5672 44.8597 36.7769 46.1218 36.6953L51.7307 36.4141C52.9647 36.4141 53.9743 37.5672 53.9743 38.8047V38.8166C53.9712 39.4113 53.7334 39.9805 53.313 40.3999C52.8926 40.8193 52.3237 41.0547 51.7307 41.0547ZM53.9743 45.625L46.1218 45.4844C44.8597 45.4253 43.8782 44.6118 43.8782 43.375C43.8782 42.1368 44.8597 41.3458 46.1218 41.2656L53.9743 41.125C54.5688 41.1269 55.1384 41.3645 55.5587 41.7861C55.9791 42.2076 56.2161 42.7788 56.2179 43.375C56.2161 43.9712 55.9791 44.5424 55.5587 44.9639C55.1384 45.3855 54.5688 45.6231 53.9743 45.625ZM50.6089 54.625L46.1218 54.4141C44.6494 54.2847 43.8782 53.6125 43.8782 52.375C43.8782 51.1375 44.8878 50.2656 46.1218 50.2656L50.6089 50.125C51.2035 50.1267 51.7732 50.3643 52.1936 50.7859C52.614 51.2074 52.8509 51.7788 52.8525 52.375C52.8509 52.9712 52.614 53.5426 52.1936 53.9641C51.7732 54.3857 51.2035 54.6233 50.6089 54.625ZM52.8525 50.125L46.1218 49.9844C44.7896 49.9253 43.8782 49.1125 43.8782 47.875C43.8782 46.6375 44.7896 45.8472 46.1218 45.7656L52.8525 45.625C53.4471 45.6267 54.0168 45.8643 54.4372 46.2859C54.8575 46.7074 55.0945 47.2788 55.0961 47.875C55.0945 48.4712 54.8575 49.0426 54.4372 49.4641C54.0168 49.8857 53.4471 50.1233 52.8525 50.125Z" stroke="white" stroke-width="2" stroke-miterlimit="10"/>
<defs>
<linearGradient id="paint0_linear_520_29" x1="40" y1="0" x2="40" y2="80" gradientUnits="userSpaceOnUse">
<stop stop-color="#2A83CC"/>
<stop offset="1" stop-color="#2A83CC" stop-opacity="0.4"/>
</linearGradient>
</defs>
</svg>
