<?xml version="1.0" encoding="UTF-8" standalone="no"?>
<!DOCTYPE svg PUBLIC "-//W3C//DTD SVG 1.1//EN" "http://www.w3.org/Graphics/SVG/1.1/DTD/svg11.dtd">
<svg width="100%" height="100%" viewBox="0 0 417 417" version="1.1" xmlns="http://www.w3.org/2000/svg" xmlns:xlink="http://www.w3.org/1999/xlink" xml:space="preserve" xmlns:serif="http://www.serif.com/" style="fill-rule:evenodd;clip-rule:evenodd;stroke-linecap:round;">
    <g transform="matrix(1,0,0,1,-484.898,-230.889)">
        <g id="Ellipse-3.svg" serif:id="Ellipse 3.svg" transform="matrix(4.16667,0,0,4.16667,693.231,439.222)">
            <g transform="matrix(1,0,0,1,-50,-50)">
                <clipPath id="_clip1">
                    <rect x="0" y="0" width="100" height="100"/>
                </clipPath>
                <g clip-path="url(#_clip1)">
                    <g transform="matrix(1,0,0,1,0,-22)">
                        <path d="M102,104.791C91.27,114.842 76.848,121 61,121C27.885,121 1,94.115 1,61C1,45.152 7.158,30.73 17.209,20L102,20L102,104.791Z" style="fill:url(#_Linear2);stroke:url(#_Linear3);stroke-width:2px;"/>
                    </g>
                </g>
            </g>
        </g>
        <g id="Layer1">
        </g>
    </g>
    <defs>
        <linearGradient id="_Linear2" x1="0" y1="0" x2="1" y2="0" gradientUnits="userSpaceOnUse" gradientTransform="matrix(7.22542e-15,118,-118,7.22542e-15,61,2)"><stop offset="0" style="stop-color:rgb(42,131,204);stop-opacity:1"/><stop offset="1" style="stop-color:rgb(42,131,204);stop-opacity:0"/></linearGradient>
        <linearGradient id="_Linear3" x1="0" y1="0" x2="1" y2="0" gradientUnits="userSpaceOnUse" gradientTransform="matrix(7.22542e-15,118,-118,7.22542e-15,61,2)"><stop offset="0" style="stop-color:rgb(42,131,204);stop-opacity:1"/><stop offset="1" style="stop-color:rgb(42,131,204);stop-opacity:0.4"/></linearGradient>
    </defs>
</svg>
