<svg width="35" height="36" viewBox="0 0 35 36" fill="none" xmlns="http://www.w3.org/2000/svg">
<path d="M22.4312 15.8591C22.2677 18.1812 20.5843 19.97 18.7485 19.97C16.9127 19.97 15.2264 18.1818 15.0657 15.8591C14.8983 13.4434 16.5371 11.7483 18.7485 11.7483C20.9598 11.7483 22.5986 13.4874 22.4312 15.8591Z" stroke="#7B0000" stroke-width="1.575" stroke-linecap="round" stroke-linejoin="round"/>
<path d="M18.7485 23.6243C15.1121 23.6243 11.6151 25.4725 10.7391 29.0718C10.623 29.5479 10.9148 30.019 11.393 30.019H26.1045C26.5827 30.019 26.8729 29.5479 26.7585 29.0718C25.8824 25.4148 22.3855 23.6243 18.7485 23.6243Z" stroke="#7B0000" stroke-width="1.575" stroke-miterlimit="10"/>
<path d="M11.1598 16.8835C11.0292 18.738 9.66886 20.1985 8.20245 20.1985C6.73605 20.1985 5.37343 18.7385 5.24509 16.8835C5.11173 14.9543 6.43585 13.5754 8.20245 13.5754C9.96906 13.5754 11.2932 14.9897 11.1598 16.8835Z" stroke="#7B0000" stroke-width="1.575" stroke-linecap="round" stroke-linejoin="round"/>
<path d="M11.4945 23.7385C10.4874 23.2663 9.37806 23.0847 8.20237 23.0847C5.30081 23.0847 2.50527 24.5607 1.80499 27.4354C1.71292 27.8157 1.94616 28.1919 2.32783 28.1919H8.59297" stroke="#7B0000" stroke-width="1.575" stroke-miterlimit="10" stroke-linecap="round"/>
<path d="M24.186 5.58526C24.186 5.58526 24.2303 4.56199 25.2164 3.74152C25.802 3.25438 26.5052 3.1133 27.1353 3.10461C27.7107 3.09748 28.225 3.19578 28.5325 3.3471C29.0581 3.60694 30.0845 4.23951 30.0845 5.58526C30.0845 7.0014 29.1881 7.64327 28.169 8.35056C27.15 9.05785 26.8895 9.7515 26.8895 10.5465" stroke="#7B0000" stroke-width="1.55994" stroke-miterlimit="10" stroke-linecap="round"/>
<path d="M26.8896 13.8951C27.4325 13.8951 27.8727 13.4508 27.8727 12.9028C27.8727 12.3548 27.4325 11.9106 26.8896 11.9106C26.3466 11.9106 25.9065 12.3548 25.9065 12.9028C25.9065 13.4508 26.3466 13.8951 26.8896 13.8951Z" fill="#7B0000"/>
</svg>
