<svg width="35" height="35" viewBox="0 0 35 35" fill="none" xmlns="http://www.w3.org/2000/svg">
<path d="M18.7176 15.1109C18.5541 17.4329 16.8706 19.2217 15.0348 19.2217C13.199 19.2217 11.5128 17.4335 11.3521 15.1109C11.1847 12.6952 12.8235 11 15.0348 11C17.2462 11 18.885 12.7391 18.7176 15.1109Z" stroke="#005091" stroke-width="1.575" stroke-linecap="round" stroke-linejoin="round"/>
<path d="M15.0349 22.8758C11.3984 22.8758 7.90149 24.724 7.02545 28.3233C6.90938 28.7995 7.20121 29.2705 7.67941 29.2705H22.3909C22.8691 29.2705 23.1592 28.7995 23.0449 28.3233C22.1688 24.6663 18.6719 22.8758 15.0349 22.8758Z" stroke="#005091" stroke-width="1.575" stroke-miterlimit="10"/>
<path d="M24.186 5.08532C24.186 5.08532 24.2303 4.06205 25.2164 3.24158C25.802 2.75444 26.5052 2.61336 27.1353 2.60467C27.7107 2.59754 28.225 2.69584 28.5325 2.84716C29.0581 3.107 30.0845 3.73957 30.0845 5.08532C30.0845 6.50146 29.1881 7.14333 28.169 7.85062C27.15 8.55791 26.8895 9.25156 26.8895 10.0466" stroke="#005091" stroke-width="1.55994" stroke-miterlimit="10" stroke-linecap="round"/>
<path d="M26.8896 13.3952C27.4325 13.3952 27.8727 12.9509 27.8727 12.4029C27.8727 11.8549 27.4325 11.4107 26.8896 11.4107C26.3466 11.4107 25.9065 11.8549 25.9065 12.4029C25.9065 12.9509 26.3466 13.3952 26.8896 13.3952Z" fill="#005091"/>
</svg>
